<?xml version="1.0" encoding="iso-8859-1"?>
<!-- Uploaded to: SVG Repo, www.svgrepo.com, Generator: SVG Repo Mixer Tools -->
<svg fill="#000000" height="800px" width="800px" version="1.1" id="Layer_1" xmlns="http://www.w3.org/2000/svg" xmlns:xlink="http://www.w3.org/1999/xlink" 
	 viewBox="0 0 512 512" xml:space="preserve">
<g>
	<g>
		<path d="M452.911,48.494c4.714,0,8.533-3.821,8.533-8.533V8.533c0-4.713-3.82-8.533-8.533-8.533H109.905
			C77.181,0,50.557,26.624,50.557,59.349v362.689c0,0.022-0.001,0.043-0.001,0.066c0,6.277,0.98,12.462,2.909,18.372
			c2.876,8.851,7.88,17.012,14.476,23.608c11.22,11.206,26.122,17.377,41.961,17.377h12.117v22.006c0,3.103,1.683,5.96,4.396,7.464
			c2.711,1.503,6.027,1.418,8.66-0.228l31.886-19.929l31.886,19.929c1.381,0.864,2.95,1.297,4.523,1.297
			c1.422,0,2.848-0.356,4.137-1.07c2.714-1.504,4.396-4.361,4.396-7.464v-22.006h241.004c4.714,0,8.533-3.821,8.533-8.533
			l0.003-404.523c0-4.713-3.82-8.533-8.533-8.533s-8.533,3.821-8.533,8.533v294.352H118.439v-62.242
			c0-4.713-3.821-8.533-8.533-8.533c-4.713,0-8.533,3.821-8.533,8.533v62.863c-13.121,1.898-24.864,8.1-33.749,17.13V59.349
			c0-20.392,14.511-37.458,33.749-41.416v32.106c0,4.713,3.821,8.533,8.533,8.533c4.713,0,8.533-3.821,8.533-8.533V17.067h325.939
			v22.894C444.378,44.674,448.198,48.494,452.911,48.494z M194.837,488.07l-23.353-14.595c-1.384-0.865-2.954-1.297-4.523-1.297
			c-1.569,0-3.139,0.432-4.523,1.297l-23.353,14.595v-75.057h55.751V488.07z M423.338,437.84v-58.016h21.036v84.571H211.904v-18.021
			h202.901C419.519,446.373,423.338,442.552,423.338,437.84z M109.902,379.823h296.369v16.123H272.776
			c-4.714,0-8.533,3.821-8.533,8.533c0,4.713,3.82,8.533,8.533,8.533h133.495v16.293H211.904v-16.293h8.533
			c4.713,0,8.533-3.821,8.533-8.533c0-4.713-3.821-8.533-8.533-8.533H110.073c-4.713,0-8.533,3.821-8.533,8.533
			c0,4.713,3.821,8.533,8.533,8.533h11.947v16.293H98.695c-4.713,0-8.533,3.821-8.533,8.533s3.821,8.533,8.533,8.533h23.324v18.021
			h-12.117c-11.284,0-21.903-4.399-29.897-12.382c-4.696-4.697-8.261-10.51-10.312-16.822c-1.374-4.209-2.071-8.611-2.071-13.087
			C67.621,398.79,86.588,379.823,109.902,379.823z"/>
	</g>
</g>
<g>
	<g>
		<path d="M109.905,70.542c-4.713,0-8.533,3.821-8.533,8.533v190.588c0,4.713,3.821,8.533,8.533,8.533
			c4.713,0,8.533-3.821,8.533-8.533V79.076C118.439,74.363,114.618,70.542,109.905,70.542z"/>
	</g>
</g>
<g>
	<g>
		<path d="M307.401,178.367h-56.182c-3.129,0-5.673-2.545-5.673-5.673v-22.885c0-3.128,2.545-5.672,5.674-5.672h70.39
			c4.714,0,8.533-3.821,8.533-8.533c0-4.713-3.82-8.533-8.533-8.533h-33.765v-20.78c0-4.713-3.82-8.533-8.533-8.533
			s-8.533,3.821-8.533,8.533v20.779H251.22c-12.539,0-22.74,10.201-22.74,22.74v22.885c0,12.539,10.201,22.74,22.74,22.74h56.182
			c3.128,0,5.673,2.545,5.673,5.673v22.885c0,3.129-2.545,5.673-5.673,5.673h-70.39c-4.713,0-8.533,3.821-8.533,8.533
			c0,4.713,3.821,8.533,8.533,8.533h33.765v20.779c0,4.713,3.82,8.533,8.533,8.533s8.533-3.821,8.533-8.533v-20.779h19.557
			c12.539,0,22.74-10.201,22.74-22.74v-22.885C330.141,188.567,319.939,178.367,307.401,178.367z"/>
	</g>
</g>
<g>
	<g>
		<path d="M397.64,232.982c4.714,0,8.533-3.821,8.533-8.533V56.057c0-4.713-3.82-8.533-8.533-8.533H160.983
			c-4.713,0-8.533,3.821-8.533,8.533v261.689c0,4.713,3.821,8.533,8.533,8.533H397.64c4.714,0,8.533-3.821,8.533-8.533v-54.613
			c0-4.713-3.82-8.533-8.533-8.533c-4.714,0-8.533,3.821-8.533,8.533v46.08H169.516V64.591h219.591v159.858
			C389.107,229.161,392.927,232.982,397.64,232.982z"/>
	</g>
</g>
</svg>