<?xml version="1.0" encoding="iso-8859-1"?>
<!-- Uploaded to: SVG Repo, www.svgrepo.com, Generator: SVG Repo Mixer Tools -->
<svg fill="#000000" height="800px" width="800px" version="1.1" id="Layer_1" xmlns="http://www.w3.org/2000/svg" xmlns:xlink="http://www.w3.org/1999/xlink" 
	 viewBox="0 0 512 512" xml:space="preserve">
<g>
	<g>
		<path d="M502.965,180.706H158.419c-4.99,0-9.035,4.045-9.035,9.035v60.838h-15.312c-1.984,0-3.913,0.653-5.489,1.858
			l-67.396,51.538v-44.361c0-4.99-4.045-9.035-9.035-9.035H18.071V102.531c0-4.99-4.045-9.035-9.035-9.035
			c-4.99,0-9.035,4.045-9.035,9.035v157.083c0,4.99,4.045,9.035,9.035,9.035h34.081v53.609c0,3.438,1.95,6.576,5.032,8.1
			c1.269,0.628,2.638,0.935,4.002,0.935c1.948,0,3.883-0.629,5.49-1.858l79.49-60.787h12.253v152.395
			c0,4.99,4.045,9.035,9.035,9.035h53.784c4.99,0,9.035-4.045,9.035-9.035c0-4.99-4.045-9.035-9.035-9.035h-44.749V198.776h326.475
			v213.233h-31.925c-4.99,0-9.035,4.045-9.035,9.035v44.361l-67.396-51.539c-1.576-1.205-3.505-1.858-5.489-1.858H244.729
			c-4.99,0-9.035,4.045-9.035,9.035c0,4.99,4.045,9.035,9.035,9.035h132.297l79.49,60.787c1.606,1.229,3.541,1.858,5.49,1.858
			c1.363,0,2.733-0.308,4.002-0.935c3.082-1.523,5.032-4.662,5.032-8.1V430.08h31.925c4.99,0,9.035-4.045,9.035-9.035V189.741
			C512,184.751,507.955,180.706,502.965,180.706z"/>
	</g>
</g>
<g>
	<g>
		<path d="M353.581,19.275H9.035C4.045,19.275,0,23.321,0,28.311v44.105c0,4.99,4.045,9.035,9.035,9.035
			c4.99,0,9.035-4.045,9.035-9.035v-35.07h326.475v121.202c0,4.99,4.045,9.035,9.035,9.035s9.035-4.045,9.035-9.035V28.311
			C362.616,23.321,358.571,19.275,353.581,19.275z"/>
	</g>
</g>
<g>
	<g>
		<path d="M366.234,297.562h-62.051v-25.035h62.051c4.99,0,9.035-4.045,9.035-9.035s-4.045-9.035-9.035-9.035h-26.507v-15.597
			c0-4.99-4.045-9.035-9.035-9.035s-9.035,4.045-9.035,9.035v15.597h-26.508c-4.99,0-9.035,4.045-9.035,9.035v43.106
			c0,4.99,4.045,9.035,9.035,9.035h62.051v25.035h-62.051c-4.99,0-9.035,4.045-9.035,9.035c0,4.99,4.045,9.035,9.035,9.035h26.508
			v15.596c0,4.99,4.045,9.035,9.035,9.035s9.035-4.045,9.035-9.035v-15.596h26.507c4.99,0,9.035-4.045,9.035-9.035v-43.106
			C375.269,301.608,371.224,297.562,366.234,297.562z"/>
	</g>
</g>
<g>
	<g>
		<path d="M272.56,88.076H90.055c-4.99,0-9.035,4.045-9.035,9.035c0,4.99,4.045,9.035,9.035,9.035H272.56
			c4.99,0,9.035-4.045,9.035-9.035C281.595,92.121,277.55,88.076,272.56,88.076z"/>
	</g>
</g>
<g>
	<g>
		<path d="M272.56,134.391h-51.323c-4.99,0-9.035,4.045-9.035,9.035s4.045,9.035,9.035,9.035h51.323c4.99,0,9.035-4.045,9.035-9.035
			S277.55,134.391,272.56,134.391z"/>
	</g>
</g>
<g>
	<g>
		<path d="M192.326,134.391H90.055c-4.99,0-9.035,4.045-9.035,9.035s4.045,9.035,9.035,9.035h102.271
			c4.99,0,9.035-4.045,9.035-9.035S197.316,134.391,192.326,134.391z"/>
	</g>
</g>
<g>
	<g>
		<path d="M123.661,180.706H90.055c-4.99,0-9.035,4.045-9.035,9.035c0,4.99,4.045,9.035,9.035,9.035h33.605
			c4.99,0,9.035-4.045,9.035-9.035C132.696,184.751,128.651,180.706,123.661,180.706z"/>
	</g>
</g>
</svg>