<?xml version="1.0" encoding="iso-8859-1"?>
<!-- Uploaded to: SVG Repo, www.svgrepo.com, Generator: SVG Repo Mixer Tools -->
<svg fill="#000000" height="800px" width="800px" version="1.1" id="Layer_1" xmlns="http://www.w3.org/2000/svg" xmlns:xlink="http://www.w3.org/1999/xlink" 
	 viewBox="0 0 512.001 512.001" xml:space="preserve">
<g>
	<g>
		<path d="M510.241,188.829L415.802,63.361c-1.655-2.198-4.246-3.492-6.997-3.492H103.197c-2.751,0-5.343,1.293-6.997,3.492
			L1.761,188.829c-2.617,3.477-2.285,8.345,0.779,11.435l54.211,54.657c3.406,3.433,8.952,3.455,12.387,0.05
			c3.434-3.406,3.457-8.952,0.05-12.387l-39.407-39.73h92.426l99.948,193.957L93.617,267.216c-3.408-3.436-8.953-3.457-12.387-0.051
			c-3.434,3.406-3.457,8.952-0.05,12.387l168.602,169.991c1.644,1.657,3.883,2.59,6.218,2.59s4.574-0.933,6.218-2.59
			l247.242-249.278C512.525,197.174,512.856,192.304,510.241,188.829z M26.313,185.337L98.35,89.629l18.575,95.709H26.313z
			 M113.819,77.386H234.5L133.05,176.477L113.819,77.386z M247.243,407.258l-105.33-204.404h105.33V407.258z M247.243,185.337
			h-98.195l98.195-95.912V185.337z M398.184,77.386l-19.231,99.093L277.501,77.386H398.184z M264.76,89.425L264.76,89.425
			l98.195,95.912H264.76V89.425z M289.848,396.811l66.306-128.675c2.216-4.3,0.527-9.582-3.773-11.798
			c-4.299-2.216-9.582-0.527-11.798,3.773l-75.825,147.146V202.854h105.33l-10.369,20.122c-2.215,4.3-0.526,9.582,3.773,11.798
			c4.301,2.215,9.582,0.527,11.798-3.773l14.503-28.147h92.425L289.848,396.811z M395.077,185.337L413.65,89.63l72.038,95.707
			H395.077z"/>
	</g>
</g>
</svg>