<!DOCTYPE svg PUBLIC "-//W3C//DTD SVG 1.1//EN" "http://www.w3.org/Graphics/SVG/1.1/DTD/svg11.dtd">
<!-- Uploaded to: SVG Repo, www.svgrepo.com, Transformed by: SVG Repo Mixer Tools -->
<svg fill="#ffffff" height="800px" width="800px" version="1.1" id="Layer_1" xmlns="http://www.w3.org/2000/svg" xmlns:xlink="http://www.w3.org/1999/xlink" viewBox="0 0 511.999 511.999" xml:space="preserve" stroke="#ffffff">
<g id="SVGRepo_bgCarrier" stroke-width="0"/>
<g id="SVGRepo_tracerCarrier" stroke-linecap="round" stroke-linejoin="round"/>
<g id="SVGRepo_iconCarrier"> <g> <g> <path d="M502.635,133.493H182.96V82.601h146.078v29.965c0,5.172,4.192,9.365,9.365,9.365c5.173,0,9.365-4.193,9.365-9.365v-39.33 c0-5.172-4.192-9.365-9.365-9.365H173.595c-5.173,0-9.365,4.193-9.365,9.365v60.257H9.365c-5.173,0-9.365,4.193-9.365,9.365 v295.905c0,5.172,4.192,9.365,9.365,9.365h62.564c5.173,0,9.365-4.193,9.365-9.365c0-5.172-4.192-9.365-9.365-9.365H18.729 V152.222h474.542v277.176h-385.76c-5.173,0-9.365,4.193-9.365,9.365c0,5.172,4.192,9.365,9.365,9.365h395.123 c5.173,0,9.365-4.193,9.365-9.365V142.857C512,137.686,507.807,133.493,502.635,133.493z"/> </g> </g> <g> <g> <path d="M221.184,238.672c-2.896-4.285-8.716-5.411-13.003-2.517c-4.285,2.896-5.411,8.717-2.517,13.002 c8.994,13.31,13.747,28.875,13.747,45.015c0,22.505-9.131,43.355-25.025,58.38c-2.349-17.341-12.655-32.182-27.117-40.717 c8.519-7.736,13.877-18.895,13.877-31.281c0-23.302-18.958-42.258-42.258-42.258c-23.3,0-42.258,18.956-42.258,42.258 c0,12.387,5.359,23.547,13.878,31.284c-14.463,8.537-24.769,23.379-27.116,40.721c-15.896-15.027-25.028-35.879-25.028-58.384 c0.001-44.403,36.125-80.525,80.524-80.525c16.623,0,32.576,5.021,46.136,14.518c4.24,2.968,10.075,1.937,13.043-2.297 c2.967-4.237,1.938-10.075-2.299-13.043c-16.725-11.714-36.393-17.906-56.882-17.906c-54.728,0-99.252,44.524-99.252,99.252 c0,34.947,17.846,66.667,47.739,84.853c15.495,9.419,33.308,14.399,51.513,14.399c18.223,0,36.042-4.984,51.529-14.413 c29.883-18.181,47.724-49.896,47.724-84.839C238.141,274.281,232.277,255.09,221.184,238.672z M138.889,257.023 c12.974,0,23.529,10.554,23.529,23.529c0,12.974-10.555,23.529-23.529,23.529c-12.974,0-23.529-10.556-23.529-23.529 S125.916,257.023,138.889,257.023z M176.181,365.548c-11.453,5.995-24.24,9.146-37.292,9.146c-13.042,0-25.829-3.151-37.288-9.142 v-5.448c0-20.562,16.729-37.291,37.291-37.291s37.29,16.728,37.29,37.291V365.548z"/> </g> </g> <g> <g> <path d="M446.492,194.921h-39.329c-5.173,0-9.365,4.193-9.365,9.365c0,5.172,4.192,9.365,9.365,9.365h39.329 c5.173,0,9.365-4.193,9.365-9.365C455.856,199.113,451.665,194.921,446.492,194.921z"/> </g> </g> <g> <g> <path d="M375.948,194.921h-71.79c-5.173,0-9.365,4.193-9.365,9.365c0,5.172,4.192,9.365,9.365,9.365h71.79 c5.173,0,9.365-4.193,9.365-9.365C385.313,199.113,381.121,194.921,375.948,194.921z"/> </g> </g> <g> <g> <path d="M446.492,279.245h-83.027c-5.173,0-9.365,4.193-9.365,9.365c0,5.172,4.192,9.365,9.365,9.365h83.027 c5.173,0,9.365-4.193,9.365-9.365C455.856,283.438,451.664,279.245,446.492,279.245z"/> </g> </g> <g> <g> <path d="M332.249,279.245h-28.091c-5.173,0-9.365,4.193-9.365,9.365c0,5.172,4.192,9.365,9.365,9.365h28.091 c5.173,0,9.365-4.193,9.365-9.365C341.614,283.438,337.422,279.245,332.249,279.245z"/> </g> </g> <g> <g> <path d="M446.492,374.693H304.158c-5.173,0-9.365,4.193-9.365,9.365s4.192,9.365,9.365,9.365h142.334 c5.173,0,9.365-4.193,9.365-9.365S451.665,374.693,446.492,374.693z"/> </g> </g> <g> <g> <path d="M446.492,237.082H304.158c-5.173,0-9.365,4.193-9.365,9.365c0,5.172,4.192,9.365,9.365,9.365h142.334 c5.173,0,9.365-4.193,9.365-9.365C455.856,241.275,451.665,237.082,446.492,237.082z"/> </g> </g> </g>
</svg>