<?xml version="1.0" encoding="iso-8859-1"?>
<!-- Uploaded to: SVG Repo, www.svgrepo.com, Generator: SVG Repo Mixer Tools -->
<svg fill="#000000" height="800px" width="800px" version="1.1" id="Layer_1" xmlns="http://www.w3.org/2000/svg" xmlns:xlink="http://www.w3.org/1999/xlink" 
	 viewBox="0 0 512 512" xml:space="preserve">
<g>
	<g>
		<path d="M374.927,49.015c-32.15-31.924-74.841-49.311-120.14-49.011c-23.96,0.169-47.115,5.313-68.825,15.292
			c-4.615,2.121-6.637,7.583-4.515,12.198s7.582,6.637,12.198,4.516c19.324-8.882,39.939-13.462,61.273-13.612
			c40.421-0.304,78.405,15.226,107.05,43.669c28.648,28.447,44.426,66.347,44.426,106.719c0,30.627-9.148,60.092-26.455,85.21
			c-15.568,22.594-25.935,48.49-29.983,74.887c-0.769,5.02,2.677,9.715,7.697,10.485c0.472,0.072,0.942,0.107,1.405,0.107
			c4.464,0,8.382-3.256,9.079-7.804c3.627-23.667,12.947-46.918,26.946-67.238c19.432-28.202,29.703-61.276,29.703-95.647
			C424.786,123.477,407.078,80.942,374.927,49.015z"/>
	</g>
</g>
<g>
	<g>
		<path d="M367.412,408.997c6.637-6.214,10.795-15.043,10.795-24.831c0-18.763-15.265-34.028-34.028-34.028
			c0,0-178.971,0.083-180.248,0.229c-1.04-34.128-12.076-67.464-32.114-96.728c-17.098-24.97-26.16-54.226-26.208-84.608
			c-0.074-45.995,20.69-88.961,56.967-117.878c3.972-3.166,4.626-8.953,1.459-12.925c-3.166-3.972-8.954-4.627-12.925-1.459
			c-40.689,32.435-63.979,80.654-63.896,132.292c0.054,34.097,10.228,66.936,29.426,94.97
			c18.972,27.707,28.999,59.396,28.999,91.643v2.72c-7.246,6.245-11.847,15.479-11.847,25.773c0,9.787,4.16,18.617,10.796,24.831
			c-6.638,6.214-10.796,15.044-10.796,24.831c0,18.763,15.265,34.028,34.028,34.028h3.678C190.797,495.589,222.006,512,256,512
			s65.203-16.411,84.502-44.144h3.678c18.763,0,34.028-15.265,34.028-34.028C378.208,424.041,374.048,415.211,367.412,408.997z
			 M255.999,493.606c-23.308,0-45.029-9.391-60.796-25.75h121.591C301.028,484.215,279.308,493.606,255.999,493.606z
			 M327.11,418.194h17.069c8.621,0,15.634,7.013,15.634,15.634s-7.013,15.634-15.634,15.634H167.819
			c-8.621,0-15.634-7.013-15.634-15.634s7.013-15.634,15.634-15.634h124.344c5.079,0,9.197-4.118,9.197-9.197
			s-4.118-9.197-9.197-9.197H167.819c-8.621,0-15.634-7.013-15.634-15.634s7.013-15.634,15.634-15.634h176.359
			c8.621,0,15.634,7.013,15.634,15.634s-7.013,15.634-15.634,15.634H327.11c-5.079,0-9.197,4.118-9.197,9.197
			S322.031,418.194,327.11,418.194z"/>
	</g>
</g>
<g>
	<g>
		<path d="M286.277,175.07h-60.554c-3.371,0-6.114-2.743-6.114-6.114V144.29c0-3.371,2.743-6.114,6.114-6.114h75.865
			c5.079,0,9.197-4.118,9.197-9.197c0-5.079-4.118-9.197-9.197-9.197h-36.391V97.384c0-5.079-4.118-9.197-9.197-9.197
			c-5.079,0-9.197,4.118-9.197,9.197v22.397h-21.08c-13.514,0-24.509,10.995-24.509,24.509v24.666
			c0,13.514,10.995,24.509,24.509,24.509h60.554c3.371,0,6.114,2.743,6.114,6.114v24.665c-0.001,3.371-2.743,6.114-6.114,6.114
			h-75.865c-5.079,0-9.197,4.118-9.197,9.197c0,5.079,4.118,9.197,9.197,9.197h36.391v22.397c0,5.079,4.118,9.197,9.197,9.197
			s9.197-4.118,9.197-9.197v-22.397h21.08c13.514,0,24.509-10.995,24.509-24.509v-24.666
			C310.786,186.063,299.791,175.07,286.277,175.07z"/>
	</g>
</g>
</svg>