<!DOCTYPE svg PUBLIC "-//W3C//DTD SVG 1.1//EN" "http://www.w3.org/Graphics/SVG/1.1/DTD/svg11.dtd">
<!-- Uploaded to: SVG Repo, www.svgrepo.com, Transformed by: SVG Repo Mixer Tools -->
<svg fill="#ffffff" height="800px" width="800px" version="1.1" id="Layer_1" xmlns="http://www.w3.org/2000/svg" xmlns:xlink="http://www.w3.org/1999/xlink" viewBox="0 0 512 512" xml:space="preserve" stroke="#ffffff">
<g id="SVGRepo_bgCarrier" stroke-width="0"/>
<g id="SVGRepo_tracerCarrier" stroke-linecap="round" stroke-linejoin="round"/>
<g id="SVGRepo_iconCarrier"> <g> <g> <path d="M502.608,10.551H9.392C4.205,10.551,0,14.756,0,19.943V447.22c0,5.187,4.205,9.392,9.392,9.392h34.126v35.445 c0,5.187,4.205,9.392,9.392,9.392h81.764c5.187,0,9.392-4.205,9.392-9.392v-35.445h223.867v35.445 c0,5.187,4.205,9.392,9.392,9.392h81.764c5.187,0,9.392-4.205,9.392-9.392v-35.445h34.126c5.187,0,9.392-4.205,9.392-9.392V19.943 C512,14.755,507.795,10.551,502.608,10.551z M125.282,482.666H62.303v-26.054h62.979V482.666z M449.697,482.666h-62.979v-26.054 h62.979V482.666z M493.216,437.828H18.784V29.335h474.431V437.828z"/> </g> </g> <g> <g> <path d="M452.496,60.663H59.505c-5.187,0-9.392,4.205-9.392,9.392v327.052c0,5.187,4.205,9.392,9.392,9.392h392.991 c5.187,0,9.392-4.205,9.392-9.392V70.055C461.888,64.868,457.683,60.663,452.496,60.663z M443.104,387.715H68.898V79.447h374.206 V387.715z"/> </g> </g> <g> <g> <path d="M255.999,127.92c-58.262,0-105.661,47.399-105.661,105.661c0,58.262,47.399,105.661,105.661,105.661 c58.262,0,105.662-47.399,105.662-105.661C361.662,175.319,314.262,127.92,255.999,127.92z M342.361,224.189H307.39 c-1.355-7.427-4.278-14.311-8.423-20.292l24.707-24.707C333.822,191.792,340.533,207.265,342.361,224.189z M265.393,147.22 c16.924,1.828,32.398,8.539,44.999,18.688l-24.707,24.707c-5.982-4.145-12.865-7.068-20.292-8.423V147.22z M246.607,147.22v34.972 c-7.427,1.355-14.31,4.278-20.292,8.423l-24.707-24.707C214.21,155.759,229.684,149.048,246.607,147.22z M188.327,179.19 l24.707,24.707c-4.145,5.981-7.068,12.865-8.423,20.292h-34.972C171.467,207.265,178.178,191.79,188.327,179.19z M169.639,242.973 h34.972c1.355,7.427,4.278,14.311,8.423,20.292l-24.707,24.707C178.178,275.37,171.467,259.897,169.639,242.973z M246.608,319.943 c-16.924-1.828-32.397-8.539-44.999-18.688l24.707-24.707c5.981,4.145,12.865,7.068,20.292,8.423V319.943z M222.532,233.581 c0-18.454,15.014-33.468,33.468-33.468c18.454,0,33.468,15.014,33.468,33.468s-15.013,33.468-33.468,33.468 C237.546,267.048,222.532,252.035,222.532,233.581z M265.392,319.943v-34.972c7.427-1.354,14.311-4.278,20.292-8.423 l24.707,24.707C297.789,311.404,282.315,318.115,265.392,319.943z M323.673,287.972l-24.707-24.707 c4.145-5.982,7.069-12.865,8.423-20.292h34.972C340.533,259.897,333.822,275.371,323.673,287.972z"/> </g> </g> <g> <g> <circle cx="416.852" cy="104.103" r="9.392"/> </g> </g> <g> <g> <circle cx="416.852" cy="363.066" r="9.392"/> </g> </g> <g> <g> <circle cx="95.148" cy="104.103" r="9.392"/> </g> </g> <g> <g> <circle cx="95.148" cy="363.066" r="9.392"/> </g> </g> </g>
</svg>